<svg xmlns="http://www.w3.org/2000/svg" xmlns:xlink="http://www.w3.org/1999/xlink" preserveAspectRatio="xMidYMid" width="50px" height="39px" viewBox="0 0 648 648">
  <defs>
    <style>
      .cls-1 {
        fill: #626767;
        fill-rule: evenodd;
      }
    </style>
  </defs>
  <path d="M472.616,356.828 L548.952,509.006 L395.288,509.006 L374.964,442.335 L327.625,509.006 L188.236,509.006 L168.756,509.006 L49.690,509.006 L113.139,212.086 L251.437,212.086 L251.385,212.334 L388.844,212.334 L409.415,275.039 L455.514,212.334 L604.470,212.334 L472.616,356.828 ZM249.380,221.750 L193.984,482.004 L313.250,354.350 L249.380,221.750 ZM271.017,144.424 C270.189,160.286 262.219,172.802 247.100,181.973 C231.981,191.143 210.791,195.728 183.527,195.728 C157.751,195.728 140.069,191.352 130.488,182.592 C123.215,176.148 119.583,165.657 119.583,151.116 L119.831,149.133 C120.985,132.612 129.001,119.724 143.872,110.469 C158.743,101.217 179.562,96.589 206.329,96.589 C229.790,96.589 247.472,101.961 259.368,112.699 C267.629,120.301 271.594,129.305 271.265,139.715 L271.017,144.424 Z" class="cls-1"/>
</svg>
